HIERARCHY
ROOT Hips
{
	OFFSET 0.000000 0.000000 0.000000
	CHANNELS 6 Xposition Yposition Zposition Xrotation Yrotation Zrotation
	JOINT LeftUpLeg_virtual
	{
		OFFSET 0.000000 0.000000 0.000000
		CHANNELS 3 Xrotation Yrotation Zrotation
		JOINT LeftUpLeg
		{
			OFFSET 15.427100 -6.655098 0.678600
			CHANNELS 3 Xrotation Yrotation Zrotation
			JOINT LeftLeg
			{
				OFFSET 4.081073 -39.591068 13.024000
				CHANNELS 3 Xrotation Yrotation Zrotation
				JOINT LeftFoot
				{
					OFFSET -4.081074 -37.707932 -15.979700
					CHANNELS 3 Xrotation Yrotation Zrotation
					JOINT LeftToeBase
					{
						OFFSET 5.346399 -15.068900 20.645000
						CHANNELS 3 Xrotation Yrotation Zrotation
						JOINT LeftToe_End
						{
							OFFSET 2.754700 0.931300 11.300900
							CHANNELS 3 Xrotation Yrotation Zrotation
							End Site
							{
								OFFSET 0 0 0
							}
						}
					}
				}
			}
		}
	}
	JOINT RightUpLeg_virtual
	{
		OFFSET 0.000000 0.000000 0.000000
		CHANNELS 3 Xrotation Yrotation Zrotation
		JOINT RightUpLeg
		{
			OFFSET -15.569500 -6.655098 0.678600
			CHANNELS 3 Xrotation Yrotation Zrotation
			JOINT RightLeg
			{
				OFFSET -4.081825 -39.591045 13.023800
				CHANNELS 3 Xrotation Yrotation Zrotation
				JOINT RightFoot
				{
					OFFSET 4.081824 -37.707954 -15.979600
					CHANNELS 3 Xrotation Yrotation Zrotation
					JOINT RightToeBase
					{
						OFFSET -5.346400 -15.068900 20.645000
						CHANNELS 3 Xrotation Yrotation Zrotation
						JOINT RightToe_End
						{
							OFFSET -2.754700 0.931300 11.300900
							CHANNELS 3 Xrotation Yrotation Zrotation
							End Site
							{
								OFFSET 0 0 0
							}
						}
					}
				}
			}
		}
	}
	JOINT Spine_virtual
	{
		OFFSET 0.000000 0.000000 0.000000
		CHANNELS 3 Xrotation Yrotation Zrotation
		JOINT Spine
		{
			OFFSET -0.279200 12.230698 -2.892100
			CHANNELS 3 Xrotation Yrotation Zrotation
			JOINT Spine1
			{
				OFFSET -0.232667 10.192268 -1.242267
				CHANNELS 3 Xrotation Yrotation Zrotation
				JOINT Spine1_split
				{
					OFFSET -0.232667 10.192268 -1.242267
					CHANNELS 3 Xrotation Yrotation Zrotation
					JOINT Spine2
					{
						OFFSET -0.232667 10.192268 -1.242267
						CHANNELS 3 Xrotation Yrotation Zrotation
						JOINT Neck_virtual
						{
							OFFSET 0.000000 0.000000 0.000000
							CHANNELS 3 Xrotation Yrotation Zrotation
							JOINT Neck
							{
								OFFSET -0.418800 17.814194 8.416900
								CHANNELS 3 Xrotation Yrotation Zrotation
								JOINT Head
								{
									OFFSET 0.000000 7.031097 3.806800
									CHANNELS 3 Xrotation Yrotation Zrotation
									JOINT HeadTop_End
									{
										OFFSET 0.000000 24.646606 12.978600
										CHANNELS 3 Xrotation Yrotation Zrotation
										End Site
										{
											OFFSET 0 0 0
										}
									}
								}
							}
						}
						JOINT LeftShoulder_virtual
						{
							OFFSET 0.000000 0.000000 0.000000
							CHANNELS 3 Xrotation Yrotation Zrotation
							JOINT LeftShoulder
							{
								OFFSET 8.476499 7.247704 -3.868750
								CHANNELS 3 Xrotation Yrotation Zrotation
								JOINT LeftShoulder_split
								{
									OFFSET 8.476499 7.247704 -3.868750
									CHANNELS 3 Xrotation Yrotation Zrotation
									JOINT LeftArm
									{
										OFFSET 9.308998 -2.777710 0.208600
										CHANNELS 3 Xrotation Yrotation Zrotation
										JOINT LeftForeArm
										{
											OFFSET 29.972298 0.000000 0.000000
											CHANNELS 3 Xrotation Yrotation Zrotation
											JOINT LeftHand
											{
												OFFSET 26.026505 0.000000 0.000000
												CHANNELS 3 Xrotation Yrotation Zrotation
												End Site
												{
													OFFSET 0 0 0
												}
											}
										}
									}
								}
							}
						}
						JOINT RightShoulder_virtual
						{
							OFFSET 0.000000 0.000000 0.000000
							CHANNELS 3 Xrotation Yrotation Zrotation
							JOINT RightShoulder
							{
								OFFSET -7.570500 7.247704 -3.868750
								CHANNELS 3 Xrotation Yrotation Zrotation
								JOINT RightShoulder_split
								{
									OFFSET -7.570500 7.247704 -3.868750
									CHANNELS 3 Xrotation Yrotation Zrotation
									JOINT RightArm
									{
										OFFSET -9.308998 -2.777710 0.208500
										CHANNELS 3 Xrotation Yrotation Zrotation
										JOINT RightForeArm
										{
											OFFSET -29.972300 0.000000 0.000000
											CHANNELS 3 Xrotation Yrotation Zrotation
											JOINT RightHand
											{
												OFFSET -26.026505 0.000000 0.000000
												CHANNELS 3 Xrotation Yrotation Zrotation
												End Site
												{
													OFFSET 0 0 0
												}
											}
										}
									}
								}
							}
						}
					}
				}
			}
		}
	}
}
MOTION
Frames: 11
Frame Time: 0.03333333
0.734666 91.042023 -1.118877 0.000000 0.000000 0.000000 1.939793 1.907598 -2.831689 -27.973639 8.318380 6.374608 50.809825 -3.331966 -0.603282 5.475592 -0.810597 -1.117132 -25.411487 -1.233918 3.977286 0.000000 0.000000 0.000000 1.939793 1.907598 -2.831689 -16.869801 -8.271160 4.600424 27.647486 2.450405 -4.094448 -13.234752 -0.175425 -0.351909 -4.971783 0.000001 -0.000000 0.000000 0.000000 0.000000 1.939793 1.907598 -2.831689 6.226019 -0.962044 2.698042 2.498163 -2.419468 1.232352 0.000000 0.000000 0.000000 0.000000 0.000000 0.000000 2.471488 -2.375263 1.342052 -0.476782 2.129173 -0.237603 -3.192702 4.531154 -1.881902 0.000000 0.000000 0.000000 2.471488 -2.375263 1.342052 0.352373 -9.169221 -14.380746 0.000000 0.000000 0.000000 9.011960 -24.442281 -57.554596 -0.000004 -11.061374 0.000012 0.000000 0.000000 0.000000 2.471488 -2.375263 1.342052 0.552467 4.135211 15.717232 0.000000 0.000000 0.000000 3.061866 28.096173 49.279842 -0.000005 23.795802 0.000028 0.000000 0.000000 0.000000 
2.029259 90.854385 0.155300 0.000000 0.000000 0.000000 1.781097 2.103820 -2.535320 -28.165859 7.477444 7.821633 50.247157 -2.659880 -0.525881 4.371911 -0.132829 -2.159817 -23.014036 -0.638964 2.320633 0.000000 0.000000 0.000000 1.781097 2.103820 -2.535320 -16.101356 -8.008068 3.162393 28.188416 2.409370 -3.871248 -14.399709 0.234438 0.611358 -4.747457 -0.000001 -0.000001 0.000000 0.000000 0.000000 1.781097 2.103820 -2.535320 6.407975 -0.211088 2.494946 2.528581 -1.613456 1.064342 0.000000 0.000000 0.000000 0.000000 0.000000 0.000000 2.545424 -1.578220 1.147881 -0.365330 1.971524 -0.237603 -3.183211 2.474958 -1.431030 0.000000 0.000000 0.000000 2.545424 -1.578220 1.147881 0.372029 -9.555644 -15.041969 0.000000 0.000000 0.000000 8.216910 -22.540953 -57.446713 0.000003 -11.975304 0.000001 0.000000 0.000000 0.000000 2.545424 -1.578220 1.147881 0.321547 4.755070 15.877634 0.000000 0.000000 0.000000 5.691788 26.887823 47.980716 0.000001 30.206607 -0.000004 0.000000 0.000000 0.000000 
4.840094 90.693733 2.775108 0.000000 0.000000 0.000000 1.594320 2.396101 -1.779915 -27.558032 5.900538 11.144534 46.946738 -0.136569 -0.347338 2.482883 1.420256 -5.648734 -17.924959 0.157191 -0.795340 0.000000 0.000000 0.000000 1.594320 2.396101 -1.779915 -14.316776 -7.494211 -0.033411 28.457116 2.767880 -3.269807 -16.231439 0.851425 2.498142 -4.268032 -0.000001 0.000000 0.000000 0.000000 0.000000 1.594320 2.396101 -1.779915 6.767298 1.221288 1.910803 2.597818 0.014281 0.707129 0.000000 0.000000 0.000000 0.000000 0.000000 0.000000 2.699917 0.030978 0.735977 -0.187442 1.661603 -0.240756 -3.336267 -1.805328 -0.614703 0.000000 0.000000 0.000000 2.699917 0.030978 0.735977 0.351721 -10.465481 -16.222263 0.000000 0.000000 0.000000 6.640032 -18.590120 -57.376000 0.000008 -13.844612 0.000002 0.000000 0.000000 0.000000 2.699917 0.030978 0.735977 -0.150901 6.103866 16.004805 0.000000 0.000000 0.000000 9.788272 25.097638 45.794492 0.000006 40.905101 -0.000004 0.000000 0.000000 0.000000 
7.701649 90.839943 5.507378 0.000000 0.000000 0.000000 1.514427 2.489952 -0.952118 -26.090431 4.999221 14.558285 41.187308 2.922590 -0.092971 1.590518 3.136382 -9.593163 -10.873944 0.208620 -2.772535 0.000000 0.000000 0.000000 1.514427 2.489952 -0.952118 -12.048983 -7.100312 -3.200665 27.512820 3.619682 -2.630718 -17.416357 1.221445 4.192165 -3.924549 0.000001 0.000001 0.000000 0.000000 0.000000 1.514427 2.489952 -0.952118 7.096966 2.605474 1.225509 2.686968 1.669193 0.346727 0.000000 0.000000 0.000000 0.000000 0.000000 0.000000 2.871594 1.666854 0.319724 -0.073544 1.368001 -0.267718 -3.693324 -6.121776 0.081252 0.000000 0.000000 0.000000 2.871594 1.666854 0.319724 0.278644 -11.485319 -17.514062 0.000000 0.000000 0.000000 5.346109 -14.579409 -57.118908 -0.000001 -15.638184 -0.000027 0.000000 0.000000 0.000000 2.871594 1.666854 0.319724 -0.633525 7.599393 16.012040 0.000000 0.000000 0.000000 12.969123 23.591603 43.739937 0.000003 50.077335 -0.000002 0.000000 0.000000 0.000000 
10.429992 91.145920 8.300518 0.000000 0.000000 0.000000 1.392175 2.267487 -0.245803 -24.579650 5.048370 17.560001 34.316103 5.229511 0.153181 2.319925 3.539363 -13.147305 -7.145373 0.003516 -0.673039 0.000000 0.000000 0.000000 1.392175 2.267487 -0.245803 -9.329422 -6.905860 -5.990763 25.768434 4.543065 -2.139564 -18.567297 1.663179 5.827777 -3.684977 0.000001 -0.000002 0.000000 0.000000 0.000000 1.392175 2.267487 -0.245803 7.452546 4.040255 0.637393 2.816001 3.361220 -0.001608 0.000000 0.000000 0.000000 0.000000 0.000000 0.000000 3.079896 3.339262 -0.085631 -0.011992 1.090639 -0.324609 -4.250754 -10.305634 0.695273 0.000000 0.000000 0.000000 3.079896 3.339262 -0.085631 0.189732 -12.394354 -19.005082 0.000000 0.000000 0.000000 4.134166 -10.665546 -56.607406 -0.000002 -17.237429 -0.000005 0.000000 0.000000 0.000000 3.079896 3.339262 -0.085631 -1.126994 9.145593 16.121017 0.000000 0.000000 0.000000 15.207433 22.085676 41.720271 0.000024 57.962611 -0.000009 0.000000 0.000000 0.000000 
13.045388 91.504211 11.073135 0.000000 0.000000 0.000000 1.257554 1.816802 0.161725 -23.580953 5.599699 20.325412 27.492592 6.613962 0.243627 4.030017 2.040436 -16.291560 -6.794756 -0.000013 -0.000001 0.000000 0.000000 0.000000 1.257554 1.816802 0.161725 -6.362137 -6.989142 -8.253251 23.300951 5.504587 -1.798434 -19.333062 2.128307 7.397299 -3.362947 0.000000 -0.000002 0.000000 0.000000 0.000000 1.257554 1.816802 0.161725 7.762898 5.474047 0.330630 2.972756 5.059179 -0.324778 0.000000 0.000000 0.000000 0.000000 0.000000 0.000000 3.311782 5.017400 -0.465795 0.024627 0.823792 -0.395380 -4.904918 -14.220676 1.209517 0.000000 0.000000 0.000000 3.311782 5.017400 -0.465795 0.079492 -13.188644 -20.433148 0.000000 0.000000 0.000000 2.743187 -6.821725 -56.229146 0.000002 -18.602884 -0.000007 0.000000 0.000000 0.000000 3.311782 5.017400 -0.465795 -1.623626 10.689491 16.286805 0.000000 0.000000 0.000000 16.461504 20.545936 39.921653 0.000002 64.533827 -0.000004 0.000000 0.000000 0.000000 
15.438706 91.814056 13.744335 0.000000 0.000000 0.000000 1.091894 1.183024 0.213273 -22.955882 6.209506 23.025462 21.294754 7.832920 0.144743 5.855065 -0.418098 -19.325055 -6.286126 0.000003 0.000002 0.000000 0.000000 0.000000 1.091894 1.183024 0.213273 -3.320972 -7.238211 -9.848974 20.423191 6.415901 -1.627045 -19.762621 2.595266 8.871584 -3.045732 -0.000001 -0.000000 0.000000 0.000000 0.000000 1.091894 1.183024 0.213273 7.969658 6.886737 0.267562 3.130640 6.742782 -0.590441 0.000000 0.000000 0.000000 0.000000 0.000000 0.000000 3.540420 6.680485 -0.786798 0.077787 0.565657 -0.447729 -5.421444 -17.677629 1.645238 0.000000 0.000000 0.000000 3.540420 6.680485 -0.786798 -0.073221 -14.002558 -21.694889 0.000000 0.000000 0.000000 1.325534 -2.888535 -56.113436 -0.000003 -19.960338 0.000003 0.000000 0.000000 0.000000 3.540420 6.680485 -0.786798 -2.113983 12.367926 16.351333 0.000000 0.000000 0.000000 16.812523 18.979424 38.572223 0.000002 69.738103 -0.000004 0.000000 0.000000 0.000000 
17.613331 91.879616 16.278072 0.000000 0.000000 0.000000 0.874568 0.322986 -0.339854 -23.160856 6.511942 25.564408 16.816424 7.949222 -0.173962 7.246950 -3.945283 -22.241526 -5.963810 -0.000009 -0.000005 0.000000 0.000000 0.000000 0.874568 0.322986 -0.339854 -0.388847 -7.552807 -10.586902 17.567651 7.398520 -1.562915 -20.040870 3.025294 10.172675 -2.735963 0.000000 0.000001 0.000000 0.000000 0.000000 0.874568 0.322986 -0.339854 8.054427 8.373961 0.558380 3.288637 8.415053 -0.807853 0.000000 0.000000 0.000000 0.000000 0.000000 0.000000 3.764766 8.330232 -1.056036 0.144785 0.311919 -0.442555 -5.631500 -20.497133 2.146682 0.000000 0.000000 0.000000 3.764766 8.330232 -1.056036 -0.266378 -14.866414 -22.782607 0.000000 0.000000 0.000000 0.023830 1.037597 -56.037966 0.000001 -21.384837 0.000010 0.000000 0.000000 0.000000 3.764766 8.330232 -1.056036 -2.606572 14.185758 16.426970 0.000000 0.000000 0.000000 16.093363 17.332916 37.677120 -0.000047 73.431924 0.000047 0.000000 0.000000 0.000000 
19.559874 91.314789 18.481434 0.000000 0.000000 0.000000 0.780540 -0.535400 -1.151164 -24.299689 6.289875 27.917295 15.057992 7.931736 -0.721654 7.745061 -8.527653 -25.528525 -5.836646 0.000010 0.000004 0.000000 0.000000 0.000000 0.780540 -0.535400 -1.151164 1.480626 -7.858947 -11.091367 16.199026 8.496905 -1.493709 -20.863539 3.329803 11.251261 -2.436246 0.000002 -0.000002 0.000000 0.000000 0.000000 0.780540 -0.535400 -1.151164 7.995413 9.725237 1.016576 3.440888 10.007557 -1.027007 0.000000 0.000000 0.000000 0.000000 0.000000 0.000000 3.976188 9.900408 -1.322301 0.172800 0.071562 -0.414001 -5.551920 -22.558359 2.714892 0.000000 0.000000 0.000000 3.976188 9.900408 -1.322301 -0.479032 -15.687252 -23.821489 0.000000 0.000000 0.000000 -1.009784 4.863356 -55.877371 -0.000000 -23.264130 -0.000010 0.000000 0.000000 0.000000 3.976188 9.900408 -1.322301 -3.105440 15.820171 16.698433 0.000000 0.000000 0.000000 14.167291 15.465042 37.010295 0.000042 75.918755 -0.000065 0.000000 0.000000 0.000000 
21.465149 89.867386 20.333008 0.000000 0.000000 0.000000 0.635925 -1.221450 -2.267850 -26.747029 5.112188 28.928071 19.093922 8.263778 -1.059329 6.794639 -14.085198 -27.624944 -5.229428 -0.000003 -0.000008 0.000000 0.000000 0.000000 0.635925 -1.221450 -2.267850 2.314244 -8.091454 -11.547421 16.911251 9.675764 -1.432986 -22.630691 3.337093 12.230401 -2.146809 0.000001 -0.000002 0.000000 0.000000 0.000000 0.635925 -1.221450 -2.267850 8.137217 10.876586 1.868006 3.541459 11.470317 -1.237653 0.000000 0.000000 0.000000 0.000000 0.000000 0.000000 4.126926 11.345201 -1.580375 0.157444 -0.158734 -0.400697 -5.345546 -23.760982 3.125696 0.000000 0.000000 0.000000 4.126926 11.345201 -1.580375 -0.719672 -16.478393 -24.945183 0.000000 0.000000 0.000000 -2.086016 8.299285 -55.496732 0.000007 -25.049900 0.000008 0.000000 0.000000 0.000000 4.126926 11.345201 -1.580375 -3.608899 17.194819 17.126414 0.000000 0.000000 0.000000 11.074322 13.077220 36.428671 -0.000077 77.151529 0.000088 0.000000 0.000000 0.000000 
23.015583 89.069908 21.684181 0.000000 0.000000 0.000000 0.217442 -2.155818 -3.338680 -27.154366 4.256872 27.951975 23.540631 8.929299 0.230267 3.509316 -13.291601 -22.445733 -3.334609 -0.000003 0.000000 0.000000 0.000000 0.000000 0.217442 -2.155818 -3.338680 3.390392 -8.293036 -11.573657 16.595102 10.569986 -1.677142 -23.138084 3.489592 12.894629 -1.898395 0.000000 0.000000 0.000000 0.000000 0.000000 0.217442 -2.155818 -3.338680 8.985113 12.179810 2.471142 3.527100 12.903351 -1.388312 0.000000 0.000000 0.000000 0.000000 0.000000 0.000000 4.157738 12.764630 -1.786295 0.108222 -0.409062 -0.368723 -5.068976 -24.213463 3.332812 0.000000 0.000000 0.000000 4.157738 12.764630 -1.786295 -1.025536 -17.391267 -26.188007 0.000000 0.000000 0.000000 -3.961798 10.883713 -54.475106 0.000004 -25.384268 0.000020 0.000000 0.000000 0.000000 4.157738 12.764630 -1.786295 -4.151436 18.514553 17.716052 0.000000 0.000000 0.000000 7.430039 9.458723 35.456697 -0.000087 77.018504 0.000088 0.000000 0.000000 0.000000 
